<svg id="Layer_1" data-name="Layer 1" xmlns="http://www.w3.org/2000/svg" xmlns:xlink="http://www.w3.org/1999/xlink" viewBox="0 0 459.28 84.13"><defs><clipPath id="clip-path" transform="translate(0 -6.75)"><rect x="0.02" y="7.2" width="100.44" height="81.68" style="fill:none"/></clipPath></defs><title>New2NeatLogo3</title><text transform="translate(107.8 54.45)" style="font-size:63px;fill:#00a9d4;font-family:Lato-Black, Lato">NEW2NE<tspan x="273.73" y="0" style="letter-spacing:-0.07099454365079365em">A</tspan><tspan x="314.05" y="0" style="letter-spacing:-0.030474950396825396em">T</tspan></text><text transform="translate(107.8 54.45)" style="font-size:63px;fill:#00a9d4;font-family:Lato-Black, Lato">NEW<tspan x="152.14" y="0" style="fill:#ed6f66">2</tspan><tspan x="188.68" y="0">NE</tspan><tspan x="273.73" y="0" style="letter-spacing:-0.07099454365079365em">A</tspan><tspan x="314.05" y="0" style="letter-spacing:-0.030474950396825396em">T</tspan></text><g id="cleaning_home_icon" data-name="cleaning home icon"><path d="M98.19,82.09a4.54,4.54,0,0,1-4.52,4.53H6.79a4.55,4.55,0,0,1-4.53-4.53V14A4.55,4.55,0,0,1,6.79,9.46H93.67A4.54,4.54,0,0,1,98.19,14v68.1Z" transform="translate(0 -6.75)" style="fill:#fff"/><g style="clip-path:url(#clip-path)"><path d="M98.19,82.09a4.54,4.54,0,0,1-4.52,4.53H6.79a4.55,4.55,0,0,1-4.53-4.53V14A4.55,4.55,0,0,1,6.79,9.46H93.67A4.54,4.54,0,0,1,98.19,14v68.1Z" transform="translate(0 -6.75)" style="fill:none;stroke:#00aad3;stroke-width:4.525078525543213px"/><path d="M89.83,61.44a29.31,29.31,0,0,0-3.14,5.46,39.36,39.36,0,0,0-4.57-12.45c1.52,5.5.8,15.73.64,17.7-15.92,0,37.31-.1-48.37-.32-4.17,0-3.23-6.87-3.65-8.71C27.58,66.22,27.11,78,27.11,78c0,1.68.27,2.09,1.44,2.09H88.32c.14,0,.4,0,.4-.62v-6.7c0-1.85,0-8.22,1.11-11.3Z" transform="translate(0 -6.75)" style="fill:#00aad3"/><path d="M10.82,61.44A29.25,29.25,0,0,1,14,66.9a39.15,39.15,0,0,1,4.58-12.45c-1.53,5.5-.81,15.73-.65,17.7,15.93,0-37.31-.1,48.38-.32,4.16,0,3.22-6.87,3.64-8.71C73.07,66.22,73.54,78,73.54,78c0,1.68-.28,2.09-1.44,2.09H12.32c-.14,0-.4,0-.4-.62v-6.7c0-1.85,0-8.22-1.1-11.3Z" transform="translate(0 -6.75)" style="fill:#00aad3"/></g><path d="M16,37.39l13.17-8.91v-9c0-2.16,1.1-2.28,3.27-2.28H35c2.16,0,3.26.12,3.26,2.28v2.81l8.81-6a6.63,6.63,0,0,1,6.9,0L85.1,37.39c1.9,1.29,1.55,2.34-.77,2.34H78.7V76.31a3.85,3.85,0,0,1-3.92,3.75H26.23a3.85,3.85,0,0,1-3.92-3.75V39.73H16.75c-2.32,0-2.67-1-.78-2.34Z" transform="translate(0 -6.75)" style="fill:#00aad3"/><path d="M67.77,70.9V69.51c0-.31-.42-.55-.92-.55H52.22c-.51,0-.92.24-.92.55V70.9c16.47,0,.06,0,16.47,0Z" transform="translate(0 -6.75)" style="fill:#fff"/><path d="M67.77,70.9V69.51c0-.31-.42-.55-.92-.55H52.22c-.51,0-.92.24-.92.55V70.9c16.47,0,.06,0,16.47,0Z" transform="translate(0 -6.75)" style="fill:none;stroke:#00aad3;stroke-width:0.09414008885622026px"/><path d="M50.17,72.17s-.13.65.26.65h18.2c.4,0,.26-.65.26-.65Z" transform="translate(0 -6.75)" style="fill:#fff"/><path d="M50.17,72.17s-.13.65.26.65h18.2c.4,0,.26-.65.26-.65Z" transform="translate(0 -6.75)" style="fill:none;stroke:#00aad3;stroke-width:0.09414008885622026px"/><path d="M50.17,71.53v.65c18.72,0,.1,0,18.72,0v-.65Z" transform="translate(0 -6.75)" style="fill:#00aad3"/><path d="M50.17,71.53v.65c18.72,0,.1,0,18.72,0v-.65Z" transform="translate(0 -6.75)" style="fill:none;stroke:#00aad3;stroke-width:0.06145726472139359px"/><path d="M56.59,61.94c0,.55,1.31,1,2.93,1s2.93-.44,2.93-1a.4.4,0,0,0,0-.15h0c-2.89-6.15-2.9-6.09-2.9-6.09l-2.89,6.09h0a.28.28,0,0,0,0,.15Z" transform="translate(0 -6.75)" style="fill:#00aad3"/><path d="M56.59,61.94c0,.55,1.31,1,2.93,1s2.93-.44,2.93-1a.4.4,0,0,0,0-.15h0c-2.89-6.15-2.9-6.09-2.9-6.09l-2.89,6.09h0a.28.28,0,0,0,0,.15Z" transform="translate(0 -6.75)" style="fill:none;stroke:#fff;stroke-width:0.26173529326915745px"/><polygon points="56.63 61.68 59.52 42.89 62.42 61.68 56.63 61.68 56.63 61.68" style="fill:none;stroke:#fff;stroke-width:0.2124468058347702px"/><polygon points="60.77 61.56 58.3 61.56 58.3 23.41 60.77 23.41 60.77 61.56 60.77 61.56" style="fill:#fff"/><path d="M60.88,64h-2.7a.56.56,0,0,0-.51.6v.62a.22.22,0,0,0,.2.24h3.32a.23.23,0,0,0,.21-.24v-.62a.56.56,0,0,0-.52-.6Z" transform="translate(0 -6.75)" style="fill:#fff"/><path d="M60.88,64h-2.7a.56.56,0,0,0-.51.6v.62a.22.22,0,0,0,.2.24h3.32a.23.23,0,0,0,.21-.24v-.62a.56.56,0,0,0-.52-.6Z" transform="translate(0 -6.75)" style="fill:none;stroke:#00aad3;stroke-width:0.09414008885622026px"/><path d="M61.9,67.86H57.17c-.5,0-.91.3-.91.67v2.25c0,.15.16.27.36.27h5.82c.2,0,.37-.12.37-.27V68.53c0-.37-.41-.67-.91-.67Z" transform="translate(0 -6.75)" style="fill:#fff"/><path d="M61.9,67.86H57.17c-.5,0-.91.3-.91.67v2.25c0,.15.16.27.36.27h5.82c.2,0,.37-.12.37-.27V68.53c0-.37-.41-.67-.91-.67Z" transform="translate(0 -6.75)" style="fill:none;stroke:#00aad3;stroke-width:0.09414008885622026px"/><path d="M61.9,65.34H57.17c-.5,0-.91.31-.91.67v2.25c0,.15.16.27.36.27h5.82c.2,0,.37-.12.37-.27V66c0-.36-.41-.67-.91-.67Z" transform="translate(0 -6.75)" style="fill:#fff"/><path d="M61.9,65.34H57.17c-.5,0-.91.31-.91.67v2.25c0,.15.16.27.36.27h5.82c.2,0,.37-.12.37-.27V66c0-.36-.41-.67-.91-.67Z" transform="translate(0 -6.75)" style="fill:none;stroke:#00aad3;stroke-width:0.09414008885622026px"/><path d="M60.78,54H58.29c-.27,0-.48,1-.48,2.24v2.27c0,.49.08.89.19.89h3.07c.1,0,.19-.4.19-.89V56.25c0-1.23-.21-2.24-.48-2.24Z" transform="translate(0 -6.75)" style="fill:#00aad3"/><path d="M60.78,54.27H58.29c-.27,0-.48,1-.48,2.24v2.27c0,.49.08.89.19.89h3.07c.1,0,.19-.4.19-.89V56.51c0-1.23-.21-2.24-.48-2.24Z" transform="translate(0 -6.75)" style="fill:#fff"/><path d="M68.89,71.65V70.06c0-.34-.46-.62-1-.62H51.21c-.57,0-1,.28-1,.62v1.59Z" transform="translate(0 -6.75)" style="fill:#fff"/><path d="M68.89,71.65V70.06c0-.34-.46-.62-1-.62H51.21c-.57,0-1,.28-1,.62v1.59Z" transform="translate(0 -6.75)" style="fill:none;stroke:#00aad3;stroke-width:0.09414008885622026px"/><path d="M60.77,30.9V28a1.16,1.16,0,0,0-1.15-1.15h-.18A1.15,1.15,0,0,0,58.3,28V30.9Z" transform="translate(0 -6.75)" style="fill:#fff"/><path d="M60.77,30.57V27.7a1.16,1.16,0,0,0-1.15-1.15h-.18A1.15,1.15,0,0,0,58.3,27.7v2.87Z" transform="translate(0 -6.75)" style="fill:#fff"/><path d="M60.08,28.33a.55.55,0,0,1-.55.54.54.54,0,0,1-.54-.54.55.55,0,0,1,.54-.55.55.55,0,0,1,.55.55Z" transform="translate(0 -6.75)" style="fill:#00aad3"/><path d="M46.44,57.2c0-.37-13.89-.37-13.86,0l1.25,13.9h0c.06.7,2.57,1.25,5.67,1.25s5.68-.57,5.68-1.27a.08.08,0,0,0,0,0h0L46.44,57.2Z" transform="translate(0 -6.75)" style="fill:#fff"/><path d="M32.58,57.19c0,.31,3.1.56,6.92.56s6.92-.25,6.92-.56-3.1-.56-6.92-.56-6.92.25-6.92.56Z" transform="translate(0 -6.75)" style="fill:#fff"/><path d="M32.58,57.19c0,.31,3.1.56,6.92.56s6.92-.25,6.92-.56-3.1-.56-6.92-.56-6.92.25-6.92.56Z" transform="translate(0 -6.75)" style="fill:none;stroke:#00aad3;stroke-width:0.303880934715271px"/><path d="M36.11,69.8a.18.18,0,0,1-.19.16h0a.18.18,0,0,1-.21-.13l-.58-7.72a.19.19,0,0,1,.19-.16h0a.18.18,0,0,1,.21.13l.58,7.72Z" transform="translate(0 -6.75)" style="fill:#00aad3"/><path d="M46.73,58.19c0-4.69-2.3-8.2-7.22-8.2s-7.22,3.51-7.22,8.2v0c0,.17.17.33.18.5.29-4.09,2.31-7.85,7-7.85s6.75,3.76,7,7.85c0-.17.18-.33.18-.5v0Z" transform="translate(0 -6.75)" style="fill:#fff"/><path d="M32.63,57.57a.11.11,0,0,1,.15.11v1.09a.12.12,0,0,1-.15.12l-.35-.1a.22.22,0,0,1-.15-.2v-.73a.23.23,0,0,1,.15-.2l.35-.09Z" transform="translate(0 -6.75)" style="fill:#fff"/><path d="M32.63,57.57a.11.11,0,0,1,.15.11v1.09a.12.12,0,0,1-.15.12l-.35-.1a.22.22,0,0,1-.15-.2v-.73a.23.23,0,0,1,.15-.2l.35-.09Z" transform="translate(0 -6.75)" style="fill:none;stroke:#fff;stroke-width:0.15157935082912447px"/><path d="M46.41,57.57a.12.12,0,0,0-.16.11v1.09a.12.12,0,0,0,.16.12l.34-.1a.22.22,0,0,0,.15-.2v-.73a.23.23,0,0,0-.15-.2l-.34-.09Z" transform="translate(0 -6.75)" style="fill:#fff"/><path d="M46.41,57.57a.12.12,0,0,0-.16.11v1.09a.12.12,0,0,0,.16.12l.34-.1a.22.22,0,0,0,.15-.2v-.73a.23.23,0,0,0-.15-.2l-.34-.09Z" transform="translate(0 -6.75)" style="fill:none;stroke:#fff;stroke-width:0.15157935082912447px"/><path d="M34.7,39c2.33,2.38,3.77,2.4,6.15.07-2.38,2.33-2.4,3.78-.07,6.16-2.33-2.38-3.77-2.4-6.15-.07C37,42.81,37,41.36,34.7,39Z" transform="translate(0 -6.75)" style="fill:#fff"/><path d="M44.76,31c1.59,1.63,2.57,1.64,4.19.05-1.62,1.59-1.63,2.57-.05,4.2-1.58-1.63-2.57-1.64-4.19-.05,1.62-1.59,1.64-2.57,0-4.2Z" transform="translate(0 -6.75)" style="fill:#fff"/></g><text transform="translate(108.8 78.13)" style="font-size:24px;fill:#056b82;font-family:MyriadPro-Bold, Myriad Pro;font-weight:700;letter-spacing:0.22001139322916666em">A CLEANING COMPANY</text></svg>